<svg width="800" height="800" viewBox="0 0 800 800" fill="none" xmlns="http://www.w3.org/2000/svg">
<path d="M603.33 361.532C610.235 373.491 610.235 388.225 603.33 400.184L473.537 624.974C458.728 650.624 477.24 682.685 506.86 682.685C520.607 682.685 533.309 675.352 540.182 663.448L625.461 515.753C640.34 489.984 677.536 489.984 692.415 515.753L794.763 693.012C809.642 718.78 791.044 750.99 761.287 750.99H620.512C620.51 750.99 620.507 750.992 620.507 750.995C620.507 750.998 620.505 751 620.503 751H285.254L285.249 750.995H263.622C246.971 750.995 236.565 732.972 244.89 718.554L438.338 383.521C445.243 371.562 445.243 356.827 438.338 344.868L433.476 336.449C418.598 310.68 381.401 310.68 366.523 336.449L138.329 731.66C131.424 743.619 118.663 750.986 104.852 750.986H38.7132C8.95617 750.986 -9.64199 718.776 5.23652 693.008L366.503 67.3262C381.382 41.5579 418.578 41.5579 433.457 67.3262L603.33 361.532Z" fill="#FFFFFF"/>
</svg>
